<?xml version="1.0" standalone="no"?><!DOCTYPE svg PUBLIC "-//W3C//DTD SVG 1.1//EN"
  "http://www.w3.org/Graphics/SVG/1.1/DTD/svg11.dtd">
<svg t="1547201242549" class="icon" style="" viewBox="0 0 1024 1024" version="1.1" xmlns="http://www.w3.org/2000/svg"
     p-id="1055" xmlns:xlink="http://www.w3.org/1999/xlink" width="200" height="200">
  <defs>
    <style type="text/css"></style>
  </defs>
  <path d="M1004 198.4H20c-4.8 0-8-3.2-8-8s3.2-8 8-8h984c4.8 0 8 3.2 8 8 0 4-3.2 8-8 8z"
        p-id="1056"></path>
  <path
    d="M1004 1020H20c-8.8 0-16-7.2-16-16V20c0-8.8 7.2-16 16-16h984c8.8 0 16 7.2 16 16v984c0 8.8-7.2 16-16 16z m-968-32h952V36H36v952z"
    p-id="1057"></path>
  <path
    d="M313.6 901.6H151.2c-4.8 0-8-3.2-8-8V300.8c0-4.8 3.2-8 8-8h162.4c4.8 0 8 3.2 8 8v593.6c0 4-4 7.2-8 7.2z m-154.4-16h146.4V308.8H159.2v576.8zM592.8 901.6H431.2c-4.8 0-8-3.2-8-8V300.8c0-4.8 3.2-8 8-8h162.4c4.8 0 8 3.2 8 8v593.6c-0.8 4-4 7.2-8.8 7.2z m-153.6-16h146.4V308.8H439.2v576.8zM872.8 901.6H710.4c-4.8 0-8-3.2-8-8V300.8c0-4.8 3.2-8 8-8h162.4c4.8 0 8 3.2 8 8v593.6c0 4-3.2 7.2-8 7.2z m-154.4-16h146.4V308.8H718.4v576.8zM684 112.8H98.4c-4.8 0-8-3.2-8-8s3.2-8 8-8h585.6c4.8 0 8 3.2 8 8s-4 8-8 8zM804 112.8h-36.8c-4.8 0-8-3.2-8-8s3.2-8 8-8h36.8c4.8 0 8 3.2 8 8s-3.2 8-8 8zM925.6 112.8h-36.8c-4.8 0-8-3.2-8-8s3.2-8 8-8h36.8c4.8 0 8 3.2 8 8s-3.2 8-8 8z"
    p-id="1058"></path>
</svg>
