<svg t="1547199310075" class="icon" style="" viewBox="0 0 1024 1024" version="1.1" xmlns="http://www.w3.org/2000/svg"
      width="128" height="128">
  <path
    d="M964.53125 660.59375l-25.96875-0.9375s-9.28125-23.90625-12.5625-29.90625l18.5625-16.59375c10.03125-10.03125 10.03125-27.46875 0-37.5l-24.9375-24.9375c-10.03125-10.03125-27.46875-10.03125-37.40625 0l-19.96875 19.96875c-10.03125-4.96875-19.96875-10.03125-30-12.46875V530.75c0-15-12.46875-24.9375-24.9375-24.9375h-34.96875c-15 0-24.9375 12.46875-24.9375 24.9375v27.46875c-10.03125 2.53125-19.96875 7.5-30 12.46875l-17.4375-19.96875c-10.03125-10.03125-27.46875-10.03125-37.40625 0L637.4375 575.75c-10.03125 10.03125-10.03125 27.46875 0 37.5l19.96875 19.96875c-4.96875 10.03125-10.03125 19.96875-12.46875 30h-27.46875c-15 0-24.9375 12.46875-24.9375 24.9375v34.96875c0 15 12.46875 24.9375 24.9375 24.9375h27.46875c2.53125 10.03125 7.5 19.96875 12.46875 30L637.4375 797.9375c-10.03125 10.03125-10.03125 27.46875 0 37.5l24.9375 24.9375c10.03125 10.03125 27.46875 10.03125 37.40625 0l19.96875-19.96875c10.03125 4.96875 19.96875 10.03125 30 12.46875v27.46875c0 15 12.46875 24.9375 24.9375 24.9375h34.96875c15 0 24.9375-12.46875 24.9375-24.9375v-27.46875c10.03125-2.53125 19.96875-7.5 30-12.46875l19.96875 19.96875c10.03125 10.03125 27.46875 10.03125 37.40625 0l24.9375-24.9375c10.03125-10.03125 10.03125-27.46875 0-37.5l-19.96875-19.96875c4.96875-10.03125 10.03125-19.96875 12.46875-30h27.46875c15 0 24.9375-12.46875 24.9375-24.9375v-34.96875c0.1875-14.90625-12.28125-27.46875-27.28125-27.46875zM792.21875 775.53125c-37.40625 0-69.9375-32.4375-69.9375-69.9375 0-37.40625 32.4375-69.9375 69.9375-69.9375 37.40625 0 69.9375 32.4375 69.9375 69.9375 0 37.40625-32.4375 69.9375-69.9375 69.9375z"
    p-id="1050"></path>
  <path
    d="M792.21875 446.5625c22.6875 0 44.34375 3.84375 65.34375 9.375 1.03125 0.09375 1.875 0.09375 2.90625 0.28125v-24.46875h-65.625L793.34375 198.875H450.875V118.71875h-255.9375L90.96875 222.40625v203.625H32v407.625h536.34375c-21.75-37.96875-35.15625-81.28125-35.15625-128.15625 0-142.96875 115.96875-258.9375 259.03125-258.9375zM683 235.4375h73.96875v189.65625h-73.96875V235.4375z m-118.3125 0h73.96875v189.65625h-73.96875V235.4375z m-429.09375 29.4375H241.0625V162.5h175.6875v262.6875H135.59375v-160.3125z m281.4375 393.75H209.9375v-102.1875h207.09375v102.1875z m103.21875-233.53125h-73.96875V235.4375h73.96875v189.65625zM417.03125 658.625z"
    p-id="1051"></path>
</svg>
